<?xml version="1.0" encoding="iso-8859-1"?>
<!-- Generator: Adobe Illustrator 19.0.0, SVG Export Plug-In . SVG Version: 6.00 Build 0)  -->
<svg version="1.1" id="Layer_1" xmlns="http://www.w3.org/2000/svg" xmlns:xlink="http://www.w3.org/1999/xlink" x="0px" y="0px"
	 viewBox="0 0 239.04 239.04" style="enable-background:new 0 0 239.04 239.04;" xml:space="preserve">
<g>
	<path style="fill:#FFFFFF;" d="M167.809,36.555c-22.276-0.183-44.597-1.054-66.919-0.504c-25.851,0.642-46.018,2.2-61.281,22.872
		c-3.988,9.854-6.004,21.359-6.967,33.368c-0.183,3.163-0.367,6.417-0.596,9.763c-0.825,20.396,0.55,41.435,0.092,58.118
		c2.154,10.955,6.371,20.809,14.255,28.326c26.126,24.888,79.294,17.142,114.128,15.767c16.73-6.096,30.663-11.138,38.134-30.251
		c5.913-15.034,4.95-34.193,5.363-50.326C204.797,90.502,206.264,44.714,167.809,36.555z"/>
	<path d="M157.588,48.38c44.505,5.729,31.443,70.219,30.205,101.478c-0.688,17.188-3.758,30.48-21.496,36.438
		c-23.33,7.838-57.706,5.225-81.494,1.742c-15.905-2.292-28.372-7.059-32.772-23.559c-6.967-26.08-4.996-61.373-1.971-87.957
		c0.092-0.504,0.229-0.871,0.458-1.192C50.93,35.547,134.441,45.401,157.588,48.38z"/>
	<path style="fill:#FFFFFF;" d="M176.059,72.627c0.092-10.955-13.567-14.438-20.901-7.7c-1.971,1.833-2.888,4.629-3.025,7.654
		c0.733,3.896,3.071,7.746,6.096,9.946C165.334,87.523,175.967,80.877,176.059,72.627z"/>
	<path style="fill:#FFFFFF;" d="M155.754,93.94c-15.675-23.742-51.06-26.08-70.081-5.042c-12.971,14.346-13.888,38.226-4.125,55.185
		c0.55,0.183,1.054,0.504,1.513,1.054c15.859,17.692,43.176,24.109,62.794,8.067C163.363,138.858,168.496,113.236,155.754,93.94z"/>
	<path d="M93.282,126.483c5.546,15.584,25.255,27.959,40.976,18.334c31.763-19.434-5.546-72.235-31.718-48.814
		C93.282,101.457,89.661,116.261,93.282,126.483z"/>
</g>
<g>
</g>
<g>
</g>
<g>
</g>
<g>
</g>
<g>
</g>
<g>
</g>
<g>
</g>
<g>
</g>
<g>
</g>
<g>
</g>
<g>
</g>
<g>
</g>
<g>
</g>
<g>
</g>
<g>
</g>
</svg>
